<?xml version="1.0" encoding="UTF-8"?>
<!-- Favicon (SVG) - adapted from inline logo in Sidebar.tsx -->
<svg xmlns="http://www.w3.org/2000/svg" viewBox="0 0 172 160" width="64" height="64">
  <path d="M172 85.7611C172.069 117.364 155.083 145.008 129.719 160C111.838 149.295 102.351 136.092 105.111 129.391C106.09 127.014 109.163 123.071 112.847 121.07C114.705 120.061 117.717 118.502 121.554 116.837C128.129 113.986 130.85 113.566 135.154 110.724C138.189 108.722 142.661 105.773 142.309 102.403C142.087 100.256 140 98.7735 138.143 97.4593C135.353 95.4727 133.273 95.2663 129.818 94.0132C127.815 93.2874 126.454 93.2492 123.335 91.2854C122.54 90.7812 120.706 88.7487 120.729 87.8165V87.8012C120.507 85.3867 124.398 82.2004 129.657 81.0696L142.126 77.9598C132.394 78.6245 122.693 79.9846 112.97 80.6493C101.954 82.1775 96.3047 83.5147 96.0677 86.0438C95.9684 87.1135 96.8322 88.2749 98.6669 89.528C99.416 90.04 100.234 90.4602 101.06 90.8423C102.688 91.5834 105.486 93.2339 106.701 96.3666V96.3896C107.167 97.5892 106.946 98.9722 106.059 99.9196C97.7954 108.798 56.8288 112.099 56.8288 112.099C49.8036 112.573 36.8692 114.491 24.0647 123.148C19.7303 126.074 16.2292 129.222 13.4542 132.149C4.93831 118.808 0 102.953 0 85.9598C0 38.082 39.1396 -0.641972 87.1849 0.00750265C133.915 0.634055 171.893 39.0524 172 85.7611Z" fill="#ffffff"/>
</svg>
